<svg width="20" height="21" viewBox="0 0 20 21" fill="none" xmlns="http://www.w3.org/2000/svg">
<path d="M19.4296 15.0688L15.0546 13.1887C14.8677 13.1089 14.6599 13.092 14.4627 13.1408C14.2654 13.1895 14.0893 13.3012 13.9608 13.459L12.0233 15.8326C8.98248 14.395 6.53535 11.9413 5.10165 8.8924L7.46888 6.94967C7.62657 6.82108 7.73818 6.64447 7.78681 6.44658C7.83545 6.2487 7.81846 6.04031 7.73842 5.85297L5.86338 1.46616C5.77554 1.26422 5.62016 1.09934 5.42406 0.999948C5.22796 0.900561 5.00341 0.872899 4.78915 0.921731L0.726575 1.86176C0.519997 1.90959 0.335688 2.02622 0.203728 2.19261C0.0717689 2.35899 -4.75872e-05 2.56532 2.36575e-08 2.7779C2.36575e-08 12.8245 8.12123 20.9518 18.1253 20.9518C18.3374 20.9519 18.5433 20.88 18.7093 20.7477C18.8753 20.6153 18.9917 20.4305 19.0394 20.2233L19.9769 16.1498C20.0253 15.9339 19.9971 15.7079 19.8972 15.5106C19.7973 15.3133 19.632 15.1571 19.4296 15.0688Z" fill="#0B2044"/>
</svg>
