<svg width="33" height="34" viewBox="0 0 33 34" fill="none" xmlns="http://www.w3.org/2000/svg">
<ellipse cx="16.5" cy="16.5953" rx="15.5" ry="15.5416" fill="#EFEFEF" stroke="#0B2044" stroke-width="2"/>
<path d="M15.6264 27.6608C9.19398 18.1732 8 17.1994 8 13.7126C8 8.93633 11.8056 5.06445 16.5 5.06445C21.1944 5.06445 25 8.93633 25 13.7126C25 17.1994 23.806 18.1732 17.3736 27.6608C16.9514 28.2812 16.0485 28.2812 15.6264 27.6608ZM16.5 17.316C18.456 17.316 20.0417 15.7027 20.0417 13.7126C20.0417 11.7225 18.456 10.1092 16.5 10.1092C14.544 10.1092 12.9583 11.7225 12.9583 13.7126C12.9583 15.7027 14.544 17.316 16.5 17.316Z" fill="#0B2044"/>
</svg>
