<svg width="48" height="49" viewBox="0 0 48 49" fill="none" xmlns="http://www.w3.org/2000/svg">
<path d="M21.016 2.07257C22.8948 1.54396 24.9121 1.89966 26.4968 3.03898C28.0815 4.1783 29.0611 5.97723 29.1584 7.92655C29.2557 9.87587 28.46 11.7634 26.9966 13.0548C25.5333 14.3463 23.5614 14.9011 21.6393 14.5622C19.7173 14.2232 18.0541 13.0275 17.1207 11.3134C16.1872 9.59938 16.0851 7.55354 16.8433 5.75506C17.6014 3.95657 19.1372 2.60118 21.016 2.07257Z" fill="#0B2044"/>
<path d="M9.98331 16.0394C8.10451 15.5108 6.08725 15.8665 4.50255 17.0058C2.91786 18.1451 1.93821 19.944 1.84092 21.8933C1.74364 23.8427 2.5393 25.7302 4.00268 27.0216C5.46606 28.3131 7.43789 28.8679 9.35998 28.529C11.2821 28.19 12.9452 26.9943 13.8787 25.2802C14.8121 23.5662 14.9142 21.5203 14.1561 19.7219C13.3979 17.9234 11.8621 16.568 9.98331 16.0394Z" fill="#0B2044"/>
<rect x="9.80084" y="18.3533" width="12.8129" height="4.27098" transform="rotate(-45 9.80084 18.3533)" fill="#0B2044"/>
<path d="M37.8209 20.0313C39.6997 19.5027 41.717 19.8584 43.3017 20.9977C44.8864 22.137 45.8661 23.936 45.9633 25.8853C46.0606 27.8346 45.265 29.7221 43.8016 31.0136C42.3382 32.305 40.3664 32.8598 38.4443 32.5209C36.5222 32.182 34.859 30.9863 33.9256 29.2722C32.9922 27.5581 32.8901 25.5123 33.6482 23.7138C34.4063 21.9153 35.9422 20.5599 37.8209 20.0313Z" fill="#0B2044"/>
<path d="M26.7882 33.9981C24.9094 33.4695 22.8922 33.8252 21.3075 34.9645C19.7228 36.1038 18.7431 37.9028 18.6459 39.8521C18.5486 41.8014 19.3442 43.6889 20.8076 44.9804C22.271 46.2718 24.2428 46.8266 26.1649 46.4877C28.087 46.1488 29.7502 44.953 30.6836 43.239C31.617 41.5249 31.7191 39.4791 30.961 37.6806C30.2029 35.8821 28.667 34.5267 26.7882 33.9981Z" fill="#0B2044"/>
<rect x="26.6058" y="36.312" width="12.8129" height="4.27098" transform="rotate(-45 26.6058 36.312)" fill="#0B2044"/>
<path d="M22.1605 17.1839C24.0393 16.6553 26.0566 17.011 27.6413 18.1503C29.226 19.2896 30.2057 21.0886 30.3029 23.0379C30.4002 24.9872 29.6046 26.8747 28.1412 28.1662C26.6778 29.4576 24.706 30.0124 22.7839 29.6735C20.8618 29.3346 19.1986 28.1388 18.2652 26.4248C17.3318 24.7107 17.2297 22.6649 17.9878 20.8664C18.7459 19.0679 20.2818 17.7125 22.1605 17.1839Z" fill="#0B2044"/>
<path d="M36.1271 2.94733C38.0059 2.41872 40.0232 2.77442 41.6079 3.91373C43.1926 5.05305 44.1722 6.85199 44.2695 8.80131C44.3668 10.7506 43.5711 12.6382 42.1077 13.9296C40.6443 15.221 38.6725 15.7758 36.7504 15.4369C34.8283 15.098 33.1652 13.9023 32.2317 12.1882C31.2983 10.4741 31.1962 8.4283 31.9543 6.62981C32.7125 4.83133 34.2483 3.47594 36.1271 2.94733Z" fill="#0B2044"/>
<path d="M11.1279 31.1509C9.24911 30.6223 7.23184 30.978 5.64715 32.1173C4.06245 33.2567 3.0828 35.0556 2.98552 37.0049C2.88823 38.9542 3.68389 40.8418 5.14727 42.1332C6.61066 43.4247 8.58248 43.9794 10.5046 43.6405C12.4267 43.3016 14.0898 42.1059 15.0233 40.3918C15.9567 38.6778 16.0588 36.6319 15.3007 34.8334C14.5425 33.0349 13.0067 31.6796 11.1279 31.1509Z" fill="#0B2044"/>
<rect x="10.9454" y="33.4646" width="34.854" height="4.27098" transform="rotate(-45 10.9454 33.4646)" fill="#0B2044"/>
</svg>
