<svg width="23" height="24" viewBox="0 0 23 24" fill="none" xmlns="http://www.w3.org/2000/svg">
<path d="M16.438 15.0286H15.3991L15.0309 14.6659C16.3196 13.1349 17.0955 11.1472 17.0955 8.98498C17.0955 4.16355 13.2687 0.255371 8.54774 0.255371C3.82676 0.255371 0 4.16355 0 8.98498C0 13.8064 3.82676 17.7146 8.54774 17.7146C10.665 17.7146 12.6112 16.9222 14.1103 15.6061L14.4654 15.9821V17.0431L21.0406 23.7447L23 21.7436L16.438 15.0286ZM8.54774 15.0286C5.2733 15.0286 2.63007 12.3291 2.63007 8.98498C2.63007 5.64087 5.2733 2.9414 8.54774 2.9414C11.8222 2.9414 14.4654 5.64087 14.4654 8.98498C14.4654 12.3291 11.8222 15.0286 8.54774 15.0286Z" fill="#0B2044"/>
</svg>
