<svg width="8" height="8" viewBox="0 0 8 8" fill="none" xmlns="http://www.w3.org/2000/svg">
<path d="M7.62626 2.5367L5.63355 2.23216L4.74305 0.340212C4.66299 0.171152 4.50684 0.0856934 4.35068 0.0856934C4.19548 0.0856934 4.04042 0.170009 3.96009 0.340212L3.06932 2.23202L1.07647 2.53627C0.719095 2.59057 0.575874 3.05202 0.834952 3.3164L2.27656 4.78835L1.93539 6.86737C1.88692 7.16433 2.11278 7.40255 2.36573 7.40255C2.43285 7.40255 2.50188 7.38583 2.56818 7.34896L4.35096 6.36748L6.1336 7.34925C6.19977 7.38569 6.26865 7.40227 6.3355 7.40227C6.58872 7.40227 6.81499 7.1649 6.76653 6.86779L6.42576 4.78863L7.86764 3.31697C8.12686 3.05259 7.98363 2.591 7.62626 2.5367ZM5.96887 4.29732L5.72218 4.54912L5.78045 4.90468L6.0462 6.52596L4.65578 5.76012L4.35109 5.59235L4.3515 1.05946L5.04623 2.53556L5.19844 2.85896L5.53893 2.91097L7.09408 3.14863L5.96887 4.29732Z" fill="#0B2044"/>
</svg>
