<svg width="21" height="21" viewBox="0 0 21 21" fill="none" xmlns="http://www.w3.org/2000/svg">
<path d="M7.47399 7.69486L6.95423 7.77047L1.21947 8.60462L1.21875 8.60473C1.00911 8.63507 0.928882 8.8916 1.07756 9.03603L1.07784 9.03631L5.22681 13.07L5.60466 13.4374L5.51522 13.9567L4.53404 19.6542C4.53403 19.6542 4.53402 19.6543 4.53401 19.6544C4.49969 19.8552 4.71538 20.0198 4.90215 19.921L4.90529 19.9193L10.0356 17.2289L10.5 16.9853L10.9644 17.2289L16.0947 19.9193L16.0949 19.9194C16.1854 19.9669 16.2809 19.9588 16.3656 19.898C16.4079 19.8676 16.437 19.83 16.453 19.7932C16.4672 19.7606 16.4767 19.7172 16.466 19.6547C16.466 19.6545 16.466 19.6543 16.466 19.6542L15.4848 13.9567L15.3953 13.4374L15.7732 13.07L19.9222 9.03631L19.9224 9.03603C20.0711 8.8916 19.9909 8.63507 19.7813 8.60473L19.7805 8.60462L14.0458 7.77047L13.526 7.69486L13.2933 7.22403L10.731 2.04077C10.7309 2.04054 10.7308 2.0403 10.7307 2.04007C10.6337 1.84636 10.3609 1.85583 10.2699 2.03893L7.47399 7.69486ZM7.47399 7.69486L7.70674 7.22403L10.2697 2.0393L7.47399 7.69486Z" stroke="#0B2044" stroke-width="2"/>
</svg>
